# File created by Blade
# Date/Time:  Thu Sep 25 17:54:10 2014
# Frame Rate: 120.000 fps
#------------------------------------------------------
:FULLY-SPECIFIED
:DEGREES
2537
root -0.005407 32.474559 -6.997287 27.806466 3.467997 0.178714
Spine -31.423419 -6.279818 6.286866
Head -2.264046 -3.231868 -7.925614
LeftShoulder -15.052889 43.810086 19.914537
LeftArm 58.952011 -34.822135 -49.676556
LeftForeArm 11.367071 0.000000 108.399981
LeftHand -13.523058 -0.000000 -10.617716
LeftHandThumb1 -26.253704 0.000000 33.147579
RightShoulder -12.682025 -49.193727 -23.132830
RightArm 59.638637 13.003896 54.829949
RightForeArm 12.239580 0.000000 72.446954
RightHand 14.588730 -0.000000 -19.295413
RightHandThumb1 -24.326973 -0.000000 -32.862282
LeftUpLeg -23.758528 3.710702 -0.049715
LeftLeg -0.766136 -0.000000 0.000000
LeftFoot -5.046592 -3.528768 -1.841555
LeftToeBase 3.952190 -0.000000 -0.000000
RightUpLeg -23.061361 -8.741213 5.020718
RightLeg -1.635246 -0.000000 0.000000
RightFoot -8.369800 -1.481988 11.470634
RightToeBase 16.047545 -0.000000 -0.000000
2538
root -0.004936 32.473718 -6.988331 27.867278 3.397475 0.173545
Spine -31.349992 -6.073292 6.199451
Head -2.133052 -3.412591 -7.992520
LeftShoulder -15.633551 44.172536 19.373742
LeftArm 57.680204 -34.896512 -49.509431
LeftForeArm 12.688728 0.000000 107.180303
LeftHand -13.260127 0.000000 -10.678427
LeftHandThumb1 -26.253704 0.000000 33.147579
RightShoulder -13.232439 -49.497784 -22.681646
RightArm 58.947080 13.688635 54.629424
RightForeArm 11.501872 -0.000000 71.579567
RightHand 14.560870 -0.000000 -19.351742
RightHandThumb1 -24.326973 -0.000000 -32.862282
LeftUpLeg -23.778588 3.758087 -0.071240
LeftLeg -0.797331 -0.000000 0.000000
LeftFoot -5.059322 -3.551917 -1.850769
LeftToeBase 4.074215 -0.000000 -0.000000
RightUpLeg -23.097583 -8.709070 5.016091
RightLeg -1.658375 -0.000000 0.000000
RightFoot -8.396691 -1.466215 11.364070
RightToeBase 16.239201 -0.000000 -0.000000
2539
root -0.003448 32.472562 -6.978759 27.925886 3.312915 0.179578
Spine -31.276520 -5.861338 6.096120
Head -2.006242 -3.542621 -8.053684
LeftShoulder -16.133269 44.416326 18.903432
LeftArm 56.342670 -34.965002 -49.321291
LeftForeArm 13.923081 -0.000000 105.937333
LeftHand -13.170932 -0.000000 -10.640892
LeftHandThumb1 -26.253704 0.000000 33.147579
RightShoulder -13.765038 -49.723558 -22.273717
RightArm 58.236238 14.302310 54.447636
RightForeArm 10.794910 -0.000000 70.622904
RightHand 14.673000 -0.000000 -19.436600
RightHandThumb1 -24.326973 -0.000000 -32.862282
LeftUpLeg -23.799187 3.819534 -0.115808
LeftLeg -0.819393 -0.000000 0.000000
LeftFoot -5.062083 -3.551883 -1.864760
LeftToeBase 4.039031 -0.000000 -0.000000
RightUpLeg -23.138775 -8.704385 5.008849
RightLeg -1.673160 -0.000000 0.000000
RightFoot -8.399519 -1.411659 11.290355
RightToeBase 16.192522 -0.000000 -0.000000
2540
root -0.004471 32.472084 -6.968948 28.006966 3.230688 0.168803
Spine -31.236767 -5.621679 5.988551
Head -1.821215 -3.733988 -8.093960
LeftShoulder -16.626691 44.654864 18.485275
LeftArm 55.224760 -34.989146 -49.230821
LeftForeArm 15.573853 -0.000000 104.546269
LeftHand -13.237802 -0.000000 -10.512584
LeftHandThumb1 -26.253704 0.000000 33.147579
RightShoulder -14.312441 -49.929723 -21.865108
RightArm 57.526518 14.874581 54.218998
RightForeArm 10.302027 -0.000000 69.601002
RightHand 14.772696 -0.000000 -19.596239
RightHandThumb1 -24.326973 -0.000000 -32.862282
LeftUpLeg -23.840890 3.874743 -0.132873
LeftLeg -0.843794 -0.000000 0.000000
LeftFoot -5.072772 -3.532178 -1.855883
LeftToeBase 4.017639 -0.000000 -0.000000
RightUpLeg -23.189575 -8.657098 5.010290
RightLeg -1.713676 -0.000000 0.000000
RightFoot -8.381706 -1.371036 11.300140
RightToeBase 16.207113 -0.000000 -0.000000
2541
root -0.004810 32.470609 -6.958935 28.064250 3.160651 0.168853
Spine -31.195859 -5.425429 5.881823
Head -1.580523 -3.893524 -8.132178
LeftShoulder -17.030962 44.903824 18.126409
LeftArm 54.032767 -35.137223 -49.120254
LeftForeArm 16.958389 -0.000000 103.154760
LeftHand -12.939502 -0.000000 -10.300323
LeftHandThumb1 -26.253704 0.000000 33.147579
RightShoulder -14.778670 -50.185821 -21.514174
RightArm 56.858128 15.467591 54.019830
RightForeArm 9.742493 -0.000000 68.578743
RightHand 14.931275 -0.000000 -19.653879
RightHandThumb1 -24.326973 -0.000000 -32.862282
LeftUpLeg -23.854456 3.878647 -0.137385
LeftLeg -0.872787 -0.000000 0.000000
LeftFoot -5.085862 -3.486623 -1.885117
LeftToeBase 4.014056 -0.000000 -0.000000
RightUpLeg -23.224560 -8.637335 5.010715
RightLeg -1.736134 -0.000000 0.000000
RightFoot -8.376950 -1.343763 11.264647
RightToeBase 16.189915 -0.000000 -0.000000
2542
root -0.005331 32.469338 -6.947585 28.117672 3.093138 0.172643
Spine -31.144024 -5.174419 5.745451
Head -1.369283 -4.120455 -8.191027
LeftShoulder -17.314697 45.053012 17.871257
LeftArm 52.882647 -35.200074 -49.014710
LeftForeArm 18.740094 -0.000000 101.690920
LeftHand -12.870382 -0.000000 -10.006377
LeftHandThumb1 -26.253704 0.000000 33.147579
RightShoulder -15.222280 -50.324994 -21.242983
RightArm 56.089927 15.972771 53.930935
RightForeArm 9.092742 0.000000 67.513015
RightHand 15.119058 0.000000 -19.627969
RightHandThumb1 -24.326973 -0.000000 -32.862282
LeftUpLeg -23.869267 3.885262 -0.146783
LeftLeg -0.887861 -0.000000 0.000000
LeftFoot -5.110469 -3.438125 -1.912394
LeftToeBase 4.007854 -0.000000 -0.000000
RightUpLeg -23.257302 -8.636862 5.011792
RightLeg -1.749162 -0.000000 0.000000
RightFoot -8.368557 -1.293766 11.239651
RightToeBase 16.154320 -0.000000 -0.000000
2543
root -0.006214 32.468851 -6.935662 28.163692 3.025746 0.173976
Spine -31.080310 -4.930434 5.621383
Head -1.176235 -4.356769 -8.266792
LeftShoulder -17.671466 45.227540 17.552902
LeftArm 51.970442 -35.367540 -49.035537
LeftForeArm 20.247907 -0.000000 100.169077
LeftHand -13.195948 -0.000000 -9.868855
LeftHandThumb1 -26.253704 0.000000 33.147579
RightShoulder -15.666096 -50.424682 -21.014239
RightArm 55.369642 16.397422 53.819376
RightForeArm 8.439139 -0.000000 66.396684
RightHand 15.416976 0.000000 -20.065509
RightHandThumb1 -24.326973 -0.000000 -32.862282
LeftUpLeg -23.878417 3.897499 -0.154123
LeftLeg -0.899115 -0.000000 0.000000
LeftFoot -5.118513 -3.402504 -1.921239
LeftToeBase 3.981287 -0.000000 -0.000000
RightUpLeg -23.272728 -8.610819 5.002121
RightLeg -1.777527 -0.000000 0.000000
RightFoot -8.357932 -1.256293 11.281371
RightToeBase 16.175651 -0.000000 -0.000000
2544
root -0.006675 32.468114 -6.922736 28.184398 2.970744 0.179268
Spine -31.011039 -4.751603 5.517120
Head -0.937939 -4.512259 -8.317537
LeftShoulder -18.038467 45.410844 17.264768
LeftArm 51.098941 -35.524955 -49.080803
LeftForeArm 21.864531 -0.000000 98.592911
LeftHand -13.269262 -0.000000 -9.655227
LeftHandThumb1 -26.253704 0.000000 33.147579
RightShoulder -16.027826 -50.625800 -20.797595
RightArm 54.752902 16.861639 53.621578
RightForeArm 7.720349 0.000000 65.300512
RightHand 15.079912 -0.000000 -20.662103
RightHandThumb1 -24.326973 -0.000000 -32.862282
LeftUpLeg -23.864684 3.892878 -0.155241
LeftLeg -0.905204 -0.000000 0.000000
LeftFoot -5.134666 -3.371871 -1.967074
LeftToeBase 4.004333 -0.000000 -0.000000
RightUpLeg -23.256987 -8.581338 4.981996
RightLeg -1.809034 -0.000000 0.000000
RightFoot -8.369790 -1.237372 11.247168
RightToeBase 16.225597 -0.000000 -0.000000
2545
root -0.006349 32.467419 -6.908623 28.196857 2.910588 0.183889
Spine -30.934591 -4.510595 5.373095
Head -0.691047 -4.773438 -8.360163
LeftShoulder -18.262379 45.590665 17.117971
LeftArm 50.310962 -35.687668 -49.227581
LeftForeArm 23.430484 0.000000 96.950007
LeftHand -13.380394 -0.000000 -9.316456
LeftHandThumb1 -26.253704 0.000000 33.147579
RightShoulder -16.463927 -50.814935 -20.523272
RightArm 54.144774 17.380909 53.536084
RightForeArm 7.327406 0.000000 64.114321
RightHand 15.520438 -0.000000 -20.781042
RightHandThumb1 -24.326973 -0.000000 -32.862282
LeftUpLeg -23.835064 3.895688 -0.163054
LeftLeg -0.918423 -0.000000 0.000000
LeftFoot -5.152329 -3.321557 -1.961636
LeftToeBase 3.994026 -0.000000 -0.000000
RightUpLeg -23.233609 -8.551971 4.957992
RightLeg -1.841313 -0.000000 0.000000
RightFoot -8.311587 -1.192691 11.364146
RightToeBase 16.024160 -0.000000 -0.000000
2546
root -0.006305 32.467151 -6.894663 28.199813 2.854181 0.185919
Spine -30.852348 -4.278844 5.234046
Head -0.446374 -4.971338 -8.400548
LeftShoulder -18.439545 45.698333 17.046152
LeftArm 49.541867 -35.825042 -49.405958
LeftForeArm 24.894985 0.000000 95.259843
LeftHand -13.495361 -0.000000 -8.788644
LeftHandThumb1 -26.253704 0.000000 33.147579
RightShoulder -16.906544 -51.000129 -20.236306
RightArm 53.606863 17.878171 53.406554
RightForeArm 6.954733 -0.000000 62.926171
RightHand 15.455918 -0.000000 -21.047511
RightHandThumb1 -24.326973 -0.000000 -32.862282
LeftUpLeg -23.797558 3.893899 -0.164183
LeftLeg -0.932380 -0.000000 0.000000
LeftFoot -5.165533 -3.282083 -1.986688
LeftToeBase 4.012860 -0.000000 -0.000000
RightUpLeg -23.204841 -8.497393 4.928087
RightLeg -1.852806 -0.000000 0.000000
RightFoot -8.374655 -1.242746 11.206831
RightToeBase 16.216153 -0.000000 -0.000000
2547
root -0.006620 32.466534 -6.879971 28.207439 2.798683 0.181020
Spine -30.771301 -4.054721 5.109298
Head -0.250557 -5.234724 -8.441108
LeftShoulder -18.682140 45.835298 16.905598
LeftArm 48.908717 -36.035673 -49.567722
LeftForeArm 26.404809 -0.000000 93.465447
LeftHand -13.462563 0.000000 -8.547684
LeftHandThumb1 -26.253704 0.000000 33.147579
RightShoulder -17.379843 -51.122246 -19.954202
RightArm 53.119771 18.304115 53.225048
RightForeArm 6.638658 -0.000000 61.603222
RightHand 15.443304 0.000000 -21.181633
RightHandThumb1 -24.326973 -0.000000 -32.862282
LeftUpLeg -23.771939 3.932793 -0.176608
LeftLeg -0.930805 -0.000000 0.000000
LeftFoot -5.194670 -3.272789 -1.996203
LeftToeBase 3.985699 -0.000000 -0.000000
RightUpLeg -23.183981 -8.445342 4.903913
RightLeg -1.859260 -0.000000 0.000000
RightFoot -8.383492 -1.231434 11.235523
RightToeBase 16.196529 -0.000000 -0.000000
2548
root -0.005867 32.466350 -6.866056 28.213286 2.754432 0.184078
Spine -30.699275 -3.853954 4.988483
Head -0.016997 -5.427632 -8.489086
LeftShoulder -18.838260 45.882043 16.847789
LeftArm 48.190388 -36.213079 -49.650862
LeftForeArm 27.587127 -0.000000 91.634585
LeftHand -13.630351 -0.000000 -7.902671
LeftHandThumb1 -26.253704 0.000000 33.147579
RightShoulder -17.802158 -51.262896 -19.696073
RightArm 52.673572 18.750825 53.070319
RightForeArm 6.356738 -0.000000 60.244138
RightHand 15.622758 -0.000000 -21.309180
RightHandThumb1 -24.326973 -0.000000 -32.862282
LeftUpLeg -23.755894 3.954136 -0.191485
LeftLeg -0.911680 -0.000000 0.000000
LeftFoot -5.222877 -3.255248 -1.988840
LeftToeBase 3.988654 -0.000000 -0.000000
RightUpLeg -23.164109 -8.405244 4.873802
RightLeg -1.866023 -0.000000 0.000000
RightFoot -8.340164 -1.198760 11.331794
RightToeBase 16.019298 -0.000000 -0.000000
2549
root -0.006426 32.466422 -6.852023 28.219843 2.707081 0.187324
Spine -30.634717 -3.718836 4.913461
Head 0.187852 -5.530759 -8.558689
LeftShoulder -19.135497 45.985701 16.641169
LeftArm 47.608749 -36.479000 -49.715721
LeftForeArm 28.770360 -0.000000 89.678017
LeftHand -13.684168 -0.000000 -7.486590
LeftHandThumb1 -26.253704 0.000000 33.147579
RightShoulder -18.056102 -51.331237 -19.635035
RightArm 52.262868 19.123410 52.986838
RightForeArm 6.115229 -0.000000 58.811925
RightHand 15.747331 -0.000000 -21.546074
RightHandThumb1 -24.326973 -0.000000 -32.862282
LeftUpLeg -23.730582 3.964043 -0.198114
LeftLeg -0.911688 -0.000000 0.000000
LeftFoot -5.239663 -3.232012 -1.986252
LeftToeBase 3.992961 -0.000000 -0.000000
RightUpLeg -23.117969 -8.294663 4.810536
RightLeg -1.911921 -0.000000 0.000000
RightFoot -8.334257 -1.247637 11.421357
RightToeBase 16.016258 -0.000000 -0.000000
